<mxfile host="65bd71144e" pages="6">
    <diagram name="Page-1" id="03018318-947c-dd8e-b7a3-06fadd420f32">
        <mxGraphModel dx="782" dy="440" grid="1" gridSize="10" guides="1" tooltips="1" connect="1" arrows="1" fold="1" page="1" pageScale="1" pageWidth="1100" pageHeight="850" background="none" math="0" shadow="0">
            <root>
                <mxCell id="0"/>
                <mxCell id="1" parent="0"/>
                <mxCell id="677b7b8949515195-1" value="" style="whiteSpace=wrap;html=1;rounded=0;shadow=0;labelBackgroundColor=none;strokeColor=#000000;strokeWidth=1;fillColor=none;fontFamily=Verdana;fontSize=12;fontColor=#000000;align=center;comic=1;" parent="1" vertex="1">
                    <mxGeometry x="20" y="20" width="1060" height="810" as="geometry"/>
                </mxCell>
                <mxCell id="677b7b8949515195-9" value="" style="line;strokeWidth=1;html=1;rounded=0;shadow=0;labelBackgroundColor=none;fillColor=none;fontFamily=Verdana;fontSize=14;fontColor=#000000;align=center;comic=1;" parent="1" vertex="1">
                    <mxGeometry x="20" y="140" width="1060" height="10" as="geometry"/>
                </mxCell>
                <mxCell id="677b7b8949515195-10" value="" style="whiteSpace=wrap;html=1;rounded=0;shadow=0;labelBackgroundColor=none;strokeWidth=1;fillColor=none;fontFamily=Verdana;fontSize=12;align=center;comic=1;" parent="1" vertex="1">
                    <mxGeometry x="260" y="60" width="650" height="50" as="geometry"/>
                </mxCell>
                <mxCell id="677b7b8949515195-15" value="&lt;div style=&quot;text-align: justify&quot;&gt;&lt;font style=&quot;font-size: 100px&quot;&gt;Intro&amp;nbsp;&lt;/font&gt;&lt;/div&gt;" style="whiteSpace=wrap;html=1;rounded=0;shadow=0;labelBackgroundColor=none;strokeWidth=1;fillColor=none;fontFamily=Verdana;fontSize=12;align=center;verticalAlign=top;spacing=10;comic=1;" parent="1" vertex="1">
                    <mxGeometry x="640" y="335" width="390" height="175" as="geometry"/>
                </mxCell>
                <mxCell id="677b7b8949515195-16" value="" style="verticalLabelPosition=bottom;shadow=0;dashed=0;align=center;html=1;verticalAlign=top;strokeWidth=1;shape=mxgraph.mockup.graphics.simpleIcon;strokeColor=#999999;rounded=0;labelBackgroundColor=none;fontFamily=Verdana;fontSize=14;fontColor=#000000;comic=1;" parent="1" vertex="1">
                    <mxGeometry x="40" y="170" width="550" height="640" as="geometry"/>
                </mxCell>
                <mxCell id="IooJbbddHytuCP8iKx6R-1" value="" style="shape=image;html=1;verticalAlign=top;verticalLabelPosition=bottom;labelBackgroundColor=#ffffff;imageAspect=0;aspect=fixed;image=https://cdn0.iconfinder.com/data/icons/mobile-basic-vol-1/32/Burger_Menu-128.png" parent="1" vertex="1">
                    <mxGeometry x="970" y="40" width="90" height="90" as="geometry"/>
                </mxCell>
                <mxCell id="eV2Ohbg8xavRPji0-Uda-1" value="number" style="text;html=1;points=[];align=left;verticalAlign=top;spacingTop=-4;fontSize=14;fontFamily=Verdana" parent="1" vertex="1">
                    <mxGeometry x="290" y="75" width="60" height="20" as="geometry"/>
                </mxCell>
                <mxCell id="eV2Ohbg8xavRPji0-Uda-2" value="email" style="text;html=1;points=[];align=left;verticalAlign=top;spacingTop=-4;fontSize=14;fontFamily=Verdana" parent="1" vertex="1">
                    <mxGeometry x="500" y="75" width="60" height="20" as="geometry"/>
                </mxCell>
                <mxCell id="eV2Ohbg8xavRPji0-Uda-3" value="linkedin" style="text;html=1;points=[];align=left;verticalAlign=top;spacingTop=-4;fontSize=14;fontFamily=Verdana" parent="1" vertex="1">
                    <mxGeometry x="680" y="75" width="60" height="20" as="geometry"/>
                </mxCell>
                <mxCell id="eV2Ohbg8xavRPji0-Uda-4" value="resume" style="text;html=1;points=[];align=left;verticalAlign=top;spacingTop=-4;fontSize=14;fontFamily=Verdana" parent="1" vertex="1">
                    <mxGeometry x="840" y="75" width="60" height="20" as="geometry"/>
                </mxCell>
            </root>
        </mxGraphModel>
    </diagram>
    <diagram name="Page-2" id="TbQXLRvN1OdXjOHeYSwx">
        <mxGraphModel dx="782" dy="440" grid="1" gridSize="10" guides="1" tooltips="1" connect="1" arrows="1" fold="1" page="1" pageScale="1" pageWidth="1100" pageHeight="850" background="none" math="0" shadow="0">
            <root>
                <mxCell id="I09FrL-yD9V6gWaq0jc6-0"/>
                <mxCell id="I09FrL-yD9V6gWaq0jc6-1" parent="I09FrL-yD9V6gWaq0jc6-0"/>
                <mxCell id="I09FrL-yD9V6gWaq0jc6-2" value="" style="whiteSpace=wrap;html=1;rounded=0;shadow=0;labelBackgroundColor=none;strokeColor=#000000;strokeWidth=1;fillColor=none;fontFamily=Verdana;fontSize=12;fontColor=#000000;align=center;comic=1;" parent="I09FrL-yD9V6gWaq0jc6-1" vertex="1">
                    <mxGeometry x="20" y="20" width="1060" height="810" as="geometry"/>
                </mxCell>
                <mxCell id="I09FrL-yD9V6gWaq0jc6-3" value="" style="whiteSpace=wrap;html=1;rounded=0;shadow=0;labelBackgroundColor=none;strokeWidth=1;fillColor=none;fontFamily=Verdana;fontSize=12;align=center;comic=1;" parent="I09FrL-yD9V6gWaq0jc6-1" vertex="1">
                    <mxGeometry x="420" y="220" width="260" height="80" as="geometry"/>
                </mxCell>
                <mxCell id="I09FrL-yD9V6gWaq0jc6-4" value="" style="line;strokeWidth=1;html=1;rounded=0;shadow=0;labelBackgroundColor=none;fillColor=none;fontFamily=Verdana;fontSize=14;fontColor=#000000;align=center;comic=1;" parent="I09FrL-yD9V6gWaq0jc6-1" vertex="1">
                    <mxGeometry x="20" y="140" width="1060" height="10" as="geometry"/>
                </mxCell>
                <mxCell id="I09FrL-yD9V6gWaq0jc6-5" value="" style="whiteSpace=wrap;html=1;rounded=0;shadow=0;labelBackgroundColor=none;strokeWidth=1;fillColor=none;fontFamily=Verdana;fontSize=12;align=center;comic=1;" parent="I09FrL-yD9V6gWaq0jc6-1" vertex="1">
                    <mxGeometry x="200" y="60" width="710" height="50" as="geometry"/>
                </mxCell>
                <mxCell id="I09FrL-yD9V6gWaq0jc6-11" value="" style="verticalLabelPosition=bottom;shadow=0;dashed=0;align=center;html=1;verticalAlign=top;strokeWidth=1;shape=mxgraph.mockup.graphics.simpleIcon;strokeColor=#999999;rounded=0;labelBackgroundColor=none;fontFamily=Verdana;fontSize=14;fontColor=#000000;comic=1;" parent="I09FrL-yD9V6gWaq0jc6-1" vertex="1">
                    <mxGeometry x="760" y="580" width="210" height="160" as="geometry"/>
                </mxCell>
                <mxCell id="I09FrL-yD9V6gWaq0jc6-14" value="PORTFOLIO&lt;br&gt;" style="text;html=1;points=[];align=left;verticalAlign=top;spacingTop=-4;fontSize=14;fontFamily=Verdana" parent="I09FrL-yD9V6gWaq0jc6-1" vertex="1">
                    <mxGeometry x="510" y="250" width="110" height="20" as="geometry"/>
                </mxCell>
                <mxCell id="I09FrL-yD9V6gWaq0jc6-36" value="" style="shape=image;html=1;verticalAlign=top;verticalLabelPosition=bottom;labelBackgroundColor=#ffffff;imageAspect=0;aspect=fixed;image=https://cdn0.iconfinder.com/data/icons/mobile-basic-vol-1/32/Burger_Menu-128.png" parent="I09FrL-yD9V6gWaq0jc6-1" vertex="1">
                    <mxGeometry x="970" y="40" width="90" height="90" as="geometry"/>
                </mxCell>
                <mxCell id="I09FrL-yD9V6gWaq0jc6-37" value="" style="verticalLabelPosition=bottom;shadow=0;dashed=0;align=center;html=1;verticalAlign=top;strokeWidth=1;shape=mxgraph.mockup.graphics.simpleIcon;strokeColor=#999999;rounded=0;labelBackgroundColor=none;fontFamily=Verdana;fontSize=14;fontColor=#000000;comic=1;" parent="I09FrL-yD9V6gWaq0jc6-1" vertex="1">
                    <mxGeometry x="445" y="583" width="210" height="160" as="geometry"/>
                </mxCell>
                <mxCell id="I09FrL-yD9V6gWaq0jc6-38" value="" style="verticalLabelPosition=bottom;shadow=0;dashed=0;align=center;html=1;verticalAlign=top;strokeWidth=1;shape=mxgraph.mockup.graphics.simpleIcon;strokeColor=#999999;rounded=0;labelBackgroundColor=none;fontFamily=Verdana;fontSize=14;fontColor=#000000;comic=1;" parent="I09FrL-yD9V6gWaq0jc6-1" vertex="1">
                    <mxGeometry x="130" y="583" width="210" height="160" as="geometry"/>
                </mxCell>
                <mxCell id="I09FrL-yD9V6gWaq0jc6-39" value="" style="verticalLabelPosition=bottom;shadow=0;dashed=0;align=center;html=1;verticalAlign=top;strokeWidth=1;shape=mxgraph.mockup.graphics.simpleIcon;strokeColor=#999999;rounded=0;labelBackgroundColor=none;fontFamily=Verdana;fontSize=14;fontColor=#000000;comic=1;" parent="I09FrL-yD9V6gWaq0jc6-1" vertex="1">
                    <mxGeometry x="760" y="360" width="210" height="160" as="geometry"/>
                </mxCell>
                <mxCell id="I09FrL-yD9V6gWaq0jc6-40" value="" style="verticalLabelPosition=bottom;shadow=0;dashed=0;align=center;html=1;verticalAlign=top;strokeWidth=1;shape=mxgraph.mockup.graphics.simpleIcon;strokeColor=#999999;rounded=0;labelBackgroundColor=none;fontFamily=Verdana;fontSize=14;fontColor=#000000;comic=1;" parent="I09FrL-yD9V6gWaq0jc6-1" vertex="1">
                    <mxGeometry x="445" y="370" width="210" height="160" as="geometry"/>
                </mxCell>
                <mxCell id="I09FrL-yD9V6gWaq0jc6-41" value="" style="verticalLabelPosition=bottom;shadow=0;dashed=0;align=center;html=1;verticalAlign=top;strokeWidth=1;shape=mxgraph.mockup.graphics.simpleIcon;strokeColor=#999999;rounded=0;labelBackgroundColor=none;fontFamily=Verdana;fontSize=14;fontColor=#000000;comic=1;" parent="I09FrL-yD9V6gWaq0jc6-1" vertex="1">
                    <mxGeometry x="130" y="370" width="210" height="160" as="geometry"/>
                </mxCell>
                <mxCell id="j67VT5ENb5p0275CqdYz-0" value="number" style="text;html=1;points=[];align=left;verticalAlign=top;spacingTop=-4;fontSize=14;fontFamily=Verdana" parent="I09FrL-yD9V6gWaq0jc6-1" vertex="1">
                    <mxGeometry x="240" y="75" width="60" height="20" as="geometry"/>
                </mxCell>
                <mxCell id="j67VT5ENb5p0275CqdYz-1" value="email" style="text;html=1;points=[];align=left;verticalAlign=top;spacingTop=-4;fontSize=14;fontFamily=Verdana" parent="I09FrL-yD9V6gWaq0jc6-1" vertex="1">
                    <mxGeometry x="450" y="75" width="60" height="20" as="geometry"/>
                </mxCell>
                <mxCell id="j67VT5ENb5p0275CqdYz-2" value="linkedin" style="text;html=1;points=[];align=left;verticalAlign=top;spacingTop=-4;fontSize=14;fontFamily=Verdana" parent="I09FrL-yD9V6gWaq0jc6-1" vertex="1">
                    <mxGeometry x="630" y="75" width="60" height="20" as="geometry"/>
                </mxCell>
                <mxCell id="j67VT5ENb5p0275CqdYz-3" value="resume" style="text;html=1;points=[];align=left;verticalAlign=top;spacingTop=-4;fontSize=14;fontFamily=Verdana" parent="I09FrL-yD9V6gWaq0jc6-1" vertex="1">
                    <mxGeometry x="790" y="75" width="60" height="20" as="geometry"/>
                </mxCell>
            </root>
        </mxGraphModel>
    </diagram>
    <diagram name="Page-3" id="LzEZWErQQUimFmHL3UDz">
        <mxGraphModel dx="1294" dy="894" grid="1" gridSize="10" guides="1" tooltips="1" connect="1" arrows="1" fold="1" page="1" pageScale="1" pageWidth="1100" pageHeight="850" background="none" math="0" shadow="0">
            <root>
                <mxCell id="Ek4QCgVu3hORkwW7SHrt-0"/>
                <mxCell id="Ek4QCgVu3hORkwW7SHrt-1" parent="Ek4QCgVu3hORkwW7SHrt-0"/>
                <mxCell id="Ek4QCgVu3hORkwW7SHrt-2" value="" style="whiteSpace=wrap;html=1;rounded=0;shadow=0;labelBackgroundColor=none;strokeColor=#000000;strokeWidth=1;fillColor=none;fontFamily=Verdana;fontSize=12;fontColor=#000000;align=center;comic=1;" vertex="1" parent="Ek4QCgVu3hORkwW7SHrt-1">
                    <mxGeometry x="20" y="20" width="1060" height="810" as="geometry"/>
                </mxCell>
                <mxCell id="Ek4QCgVu3hORkwW7SHrt-4" value="" style="line;strokeWidth=1;html=1;rounded=0;shadow=0;labelBackgroundColor=none;fillColor=none;fontFamily=Verdana;fontSize=14;fontColor=#000000;align=center;comic=1;" vertex="1" parent="Ek4QCgVu3hORkwW7SHrt-1">
                    <mxGeometry x="20" y="140" width="1060" height="10" as="geometry"/>
                </mxCell>
                <mxCell id="Ek4QCgVu3hORkwW7SHrt-5" value="" style="whiteSpace=wrap;html=1;rounded=0;shadow=0;labelBackgroundColor=none;strokeWidth=1;fillColor=none;fontFamily=Verdana;fontSize=12;align=center;comic=1;" vertex="1" parent="Ek4QCgVu3hORkwW7SHrt-1">
                    <mxGeometry x="200" y="60" width="710" height="50" as="geometry"/>
                </mxCell>
                <mxCell id="Ek4QCgVu3hORkwW7SHrt-10" value="" style="verticalLabelPosition=bottom;shadow=0;dashed=0;align=center;html=1;verticalAlign=top;strokeWidth=1;shape=mxgraph.mockup.graphics.simpleIcon;strokeColor=#999999;rounded=0;labelBackgroundColor=none;fontFamily=Verdana;fontSize=14;fontColor=#000000;comic=1;" vertex="1" parent="Ek4QCgVu3hORkwW7SHrt-1">
                    <mxGeometry x="170" y="320" width="730" height="310" as="geometry"/>
                </mxCell>
                <mxCell id="Ek4QCgVu3hORkwW7SHrt-14" value="" style="shape=image;html=1;verticalAlign=top;verticalLabelPosition=bottom;labelBackgroundColor=#ffffff;imageAspect=0;aspect=fixed;image=https://cdn0.iconfinder.com/data/icons/mobile-basic-vol-1/32/Burger_Menu-128.png" vertex="1" parent="Ek4QCgVu3hORkwW7SHrt-1">
                    <mxGeometry x="970" y="40" width="90" height="90" as="geometry"/>
                </mxCell>
                <mxCell id="a8_TgqFI3Z71OjNUy1Yw-0" value="" style="html=1;verticalLabelPosition=bottom;labelBackgroundColor=#ffffff;verticalAlign=top;shadow=0;dashed=0;strokeWidth=2;shape=mxgraph.ios7.misc.left;strokeColor=#0080f0;" vertex="1" parent="Ek4QCgVu3hORkwW7SHrt-1">
                    <mxGeometry x="60" y="400" width="36" height="81" as="geometry"/>
                </mxCell>
                <mxCell id="a8_TgqFI3Z71OjNUy1Yw-1" value="" style="html=1;verticalLabelPosition=bottom;labelBackgroundColor=#ffffff;verticalAlign=top;shadow=0;dashed=0;strokeWidth=2;shape=mxgraph.ios7.misc.left;strokeColor=#0080f0;direction=west;" vertex="1" parent="Ek4QCgVu3hORkwW7SHrt-1">
                    <mxGeometry x="960" y="400" width="36" height="81" as="geometry"/>
                </mxCell>
                <mxCell id="EUcqqTHB2DoQ8Jjwe7c2-0" value="number" style="text;html=1;points=[];align=left;verticalAlign=top;spacingTop=-4;fontSize=14;fontFamily=Verdana" vertex="1" parent="Ek4QCgVu3hORkwW7SHrt-1">
                    <mxGeometry x="240" y="75" width="60" height="20" as="geometry"/>
                </mxCell>
                <mxCell id="EUcqqTHB2DoQ8Jjwe7c2-1" value="email" style="text;html=1;points=[];align=left;verticalAlign=top;spacingTop=-4;fontSize=14;fontFamily=Verdana" vertex="1" parent="Ek4QCgVu3hORkwW7SHrt-1">
                    <mxGeometry x="450" y="75" width="60" height="20" as="geometry"/>
                </mxCell>
                <mxCell id="EUcqqTHB2DoQ8Jjwe7c2-2" value="linkedin" style="text;html=1;points=[];align=left;verticalAlign=top;spacingTop=-4;fontSize=14;fontFamily=Verdana" vertex="1" parent="Ek4QCgVu3hORkwW7SHrt-1">
                    <mxGeometry x="630" y="75" width="60" height="20" as="geometry"/>
                </mxCell>
                <mxCell id="EUcqqTHB2DoQ8Jjwe7c2-3" value="resume" style="text;html=1;points=[];align=left;verticalAlign=top;spacingTop=-4;fontSize=14;fontFamily=Verdana" vertex="1" parent="Ek4QCgVu3hORkwW7SHrt-1">
                    <mxGeometry x="790" y="75" width="60" height="20" as="geometry"/>
                </mxCell>
            </root>
        </mxGraphModel>
    </diagram>
    <diagram name="Page-4" id="vDuWvNrTjKXX0ONzP-sh">
        <mxGraphModel dx="1294" dy="894" grid="1" gridSize="10" guides="1" tooltips="1" connect="1" arrows="1" fold="1" page="1" pageScale="1" pageWidth="1100" pageHeight="850" background="none" math="0" shadow="0">
            <root>
                <mxCell id="XTW7ZS65PQ_q8n9ye0d9-0"/>
                <mxCell id="XTW7ZS65PQ_q8n9ye0d9-1" parent="XTW7ZS65PQ_q8n9ye0d9-0"/>
                <mxCell id="XTW7ZS65PQ_q8n9ye0d9-2" value="" style="whiteSpace=wrap;html=1;rounded=0;shadow=0;labelBackgroundColor=none;strokeColor=#000000;strokeWidth=1;fillColor=none;fontFamily=Verdana;fontSize=12;fontColor=#000000;align=center;comic=1;" vertex="1" parent="XTW7ZS65PQ_q8n9ye0d9-1">
                    <mxGeometry x="20" y="20" width="1060" height="810" as="geometry"/>
                </mxCell>
                <mxCell id="XTW7ZS65PQ_q8n9ye0d9-3" value="" style="whiteSpace=wrap;html=1;rounded=0;shadow=0;labelBackgroundColor=none;strokeWidth=1;fillColor=none;fontFamily=Verdana;fontSize=12;align=center;comic=1;" vertex="1" parent="XTW7ZS65PQ_q8n9ye0d9-1">
                    <mxGeometry x="410" y="260" width="260" height="80" as="geometry"/>
                </mxCell>
                <mxCell id="XTW7ZS65PQ_q8n9ye0d9-4" value="" style="line;strokeWidth=1;html=1;rounded=0;shadow=0;labelBackgroundColor=none;fillColor=none;fontFamily=Verdana;fontSize=14;fontColor=#000000;align=center;comic=1;" vertex="1" parent="XTW7ZS65PQ_q8n9ye0d9-1">
                    <mxGeometry x="20" y="140" width="1060" height="10" as="geometry"/>
                </mxCell>
                <mxCell id="XTW7ZS65PQ_q8n9ye0d9-5" value="" style="whiteSpace=wrap;html=1;rounded=0;shadow=0;labelBackgroundColor=none;strokeWidth=1;fillColor=none;fontFamily=Verdana;fontSize=12;align=center;comic=1;" vertex="1" parent="XTW7ZS65PQ_q8n9ye0d9-1">
                    <mxGeometry x="200" y="60" width="710" height="50" as="geometry"/>
                </mxCell>
                <mxCell id="XTW7ZS65PQ_q8n9ye0d9-11" value="" style="whiteSpace=wrap;html=1;rounded=0;shadow=0;labelBackgroundColor=none;strokeWidth=1;fillColor=none;fontFamily=Verdana;fontSize=12;align=center;comic=1;" vertex="1" parent="XTW7ZS65PQ_q8n9ye0d9-1">
                    <mxGeometry x="90" y="440" width="170" height="320" as="geometry"/>
                </mxCell>
                <mxCell id="XTW7ZS65PQ_q8n9ye0d9-12" value="testimonial / references" style="text;html=1;points=[];align=left;verticalAlign=top;spacingTop=-4;fontSize=14;fontFamily=Verdana" vertex="1" parent="XTW7ZS65PQ_q8n9ye0d9-1">
                    <mxGeometry x="450" y="290" width="180" height="20" as="geometry"/>
                </mxCell>
                <mxCell id="XTW7ZS65PQ_q8n9ye0d9-13" value="&lt;span style=&quot;font-family: &amp;#34;open sans&amp;#34; , &amp;#34;arial&amp;#34; , sans-serif ; text-align: justify ; background-color: rgb(255 , 255 , 255)&quot;&gt;&quot;Lorem ipsum&lt;br&gt;&amp;nbsp;dolor sit &lt;br&gt;amet, &lt;br&gt;consectetur &lt;br&gt;adipiscing&amp;nbsp;&lt;/span&gt;" style="text;html=1;points=[];align=left;verticalAlign=top;spacingTop=-4;fontSize=14;fontFamily=Verdana" vertex="1" parent="XTW7ZS65PQ_q8n9ye0d9-1">
                    <mxGeometry x="130" y="630" width="90" height="90" as="geometry"/>
                </mxCell>
                <mxCell id="XTW7ZS65PQ_q8n9ye0d9-14" value="" style="shape=image;html=1;verticalAlign=top;verticalLabelPosition=bottom;labelBackgroundColor=#ffffff;imageAspect=0;aspect=fixed;image=https://cdn0.iconfinder.com/data/icons/mobile-basic-vol-1/32/Burger_Menu-128.png" vertex="1" parent="XTW7ZS65PQ_q8n9ye0d9-1">
                    <mxGeometry x="970" y="40" width="90" height="90" as="geometry"/>
                </mxCell>
                <mxCell id="XTW7ZS65PQ_q8n9ye0d9-17" value="" style="verticalLabelPosition=bottom;shadow=0;dashed=0;align=center;html=1;verticalAlign=top;strokeWidth=1;shape=mxgraph.mockup.graphics.simpleIcon;strokeColor=#999999;rounded=0;labelBackgroundColor=none;fontFamily=Verdana;fontSize=14;fontColor=#000000;comic=1;" vertex="1" parent="XTW7ZS65PQ_q8n9ye0d9-1">
                    <mxGeometry x="115" y="510" width="120" height="80" as="geometry"/>
                </mxCell>
                <mxCell id="MELNBW23Y8ChEbWECsAZ-0" value="" style="whiteSpace=wrap;html=1;rounded=0;shadow=0;labelBackgroundColor=none;strokeWidth=1;fillColor=none;fontFamily=Verdana;fontSize=12;align=center;comic=1;" vertex="1" parent="XTW7ZS65PQ_q8n9ye0d9-1">
                    <mxGeometry x="465" y="440" width="170" height="320" as="geometry"/>
                </mxCell>
                <mxCell id="MELNBW23Y8ChEbWECsAZ-1" value="&lt;span style=&quot;font-family: &amp;#34;open sans&amp;#34; , &amp;#34;arial&amp;#34; , sans-serif ; text-align: justify ; background-color: rgb(255 , 255 , 255)&quot;&gt;&quot;Lorem ipsum&lt;br&gt;&amp;nbsp;dolor sit &lt;br&gt;amet, &lt;br&gt;consectetur &lt;br&gt;adipiscing&amp;nbsp;&lt;/span&gt;" style="text;html=1;points=[];align=left;verticalAlign=top;spacingTop=-4;fontSize=14;fontFamily=Verdana" vertex="1" parent="XTW7ZS65PQ_q8n9ye0d9-1">
                    <mxGeometry x="505" y="630" width="90" height="90" as="geometry"/>
                </mxCell>
                <mxCell id="MELNBW23Y8ChEbWECsAZ-2" value="" style="verticalLabelPosition=bottom;shadow=0;dashed=0;align=center;html=1;verticalAlign=top;strokeWidth=1;shape=mxgraph.mockup.graphics.simpleIcon;strokeColor=#999999;rounded=0;labelBackgroundColor=none;fontFamily=Verdana;fontSize=14;fontColor=#000000;comic=1;" vertex="1" parent="XTW7ZS65PQ_q8n9ye0d9-1">
                    <mxGeometry x="490" y="510" width="120" height="80" as="geometry"/>
                </mxCell>
                <mxCell id="MELNBW23Y8ChEbWECsAZ-3" value="" style="whiteSpace=wrap;html=1;rounded=0;shadow=0;labelBackgroundColor=none;strokeWidth=1;fillColor=none;fontFamily=Verdana;fontSize=12;align=center;comic=1;" vertex="1" parent="XTW7ZS65PQ_q8n9ye0d9-1">
                    <mxGeometry x="780" y="430" width="170" height="320" as="geometry"/>
                </mxCell>
                <mxCell id="MELNBW23Y8ChEbWECsAZ-4" value="&lt;span style=&quot;font-family: &amp;#34;open sans&amp;#34; , &amp;#34;arial&amp;#34; , sans-serif ; text-align: justify ; background-color: rgb(255 , 255 , 255)&quot;&gt;&quot;Lorem ipsum&lt;br&gt;&amp;nbsp;dolor sit &lt;br&gt;amet, &lt;br&gt;consectetur &lt;br&gt;adipiscing&amp;nbsp;&lt;/span&gt;" style="text;html=1;points=[];align=left;verticalAlign=top;spacingTop=-4;fontSize=14;fontFamily=Verdana" vertex="1" parent="XTW7ZS65PQ_q8n9ye0d9-1">
                    <mxGeometry x="820" y="620" width="90" height="90" as="geometry"/>
                </mxCell>
                <mxCell id="MELNBW23Y8ChEbWECsAZ-5" value="" style="verticalLabelPosition=bottom;shadow=0;dashed=0;align=center;html=1;verticalAlign=top;strokeWidth=1;shape=mxgraph.mockup.graphics.simpleIcon;strokeColor=#999999;rounded=0;labelBackgroundColor=none;fontFamily=Verdana;fontSize=14;fontColor=#000000;comic=1;" vertex="1" parent="XTW7ZS65PQ_q8n9ye0d9-1">
                    <mxGeometry x="805" y="500" width="120" height="80" as="geometry"/>
                </mxCell>
                <mxCell id="mnamVCf0kamO251FUT0K-0" value="number" style="text;html=1;points=[];align=left;verticalAlign=top;spacingTop=-4;fontSize=14;fontFamily=Verdana" vertex="1" parent="XTW7ZS65PQ_q8n9ye0d9-1">
                    <mxGeometry x="245" y="75" width="60" height="20" as="geometry"/>
                </mxCell>
                <mxCell id="mnamVCf0kamO251FUT0K-1" value="email" style="text;html=1;points=[];align=left;verticalAlign=top;spacingTop=-4;fontSize=14;fontFamily=Verdana" vertex="1" parent="XTW7ZS65PQ_q8n9ye0d9-1">
                    <mxGeometry x="455" y="75" width="60" height="20" as="geometry"/>
                </mxCell>
                <mxCell id="mnamVCf0kamO251FUT0K-2" value="linkedin" style="text;html=1;points=[];align=left;verticalAlign=top;spacingTop=-4;fontSize=14;fontFamily=Verdana" vertex="1" parent="XTW7ZS65PQ_q8n9ye0d9-1">
                    <mxGeometry x="635" y="75" width="60" height="20" as="geometry"/>
                </mxCell>
                <mxCell id="mnamVCf0kamO251FUT0K-3" value="resume" style="text;html=1;points=[];align=left;verticalAlign=top;spacingTop=-4;fontSize=14;fontFamily=Verdana" vertex="1" parent="XTW7ZS65PQ_q8n9ye0d9-1">
                    <mxGeometry x="795" y="75" width="60" height="20" as="geometry"/>
                </mxCell>
            </root>
        </mxGraphModel>
    </diagram>
    <diagram name="Page-5" id="wyANPzHblhKcxBpfTew7">
        <mxGraphModel dx="501" dy="1151" grid="1" gridSize="10" guides="1" tooltips="1" connect="1" arrows="1" fold="1" page="1" pageScale="1" pageWidth="1100" pageHeight="850" background="none" math="0" shadow="0">
            <root>
                <mxCell id="j1sb6C-Fn04QrcvdD1-I-0"/>
                <mxCell id="j1sb6C-Fn04QrcvdD1-I-1" parent="j1sb6C-Fn04QrcvdD1-I-0"/>
                <mxCell id="j1sb6C-Fn04QrcvdD1-I-2" value="" style="whiteSpace=wrap;html=1;rounded=0;shadow=0;labelBackgroundColor=none;strokeColor=#000000;strokeWidth=1;fillColor=none;fontFamily=Verdana;fontSize=12;fontColor=#000000;align=center;comic=1;" vertex="1" parent="j1sb6C-Fn04QrcvdD1-I-1">
                    <mxGeometry x="20" y="20" width="1060" height="810" as="geometry"/>
                </mxCell>
                <mxCell id="j1sb6C-Fn04QrcvdD1-I-3" value="" style="line;strokeWidth=1;html=1;rounded=0;shadow=0;labelBackgroundColor=none;fillColor=none;fontFamily=Verdana;fontSize=14;fontColor=#000000;align=center;comic=1;" vertex="1" parent="j1sb6C-Fn04QrcvdD1-I-1">
                    <mxGeometry x="20" y="140" width="1060" height="10" as="geometry"/>
                </mxCell>
                <mxCell id="j1sb6C-Fn04QrcvdD1-I-4" value="" style="whiteSpace=wrap;html=1;rounded=0;shadow=0;labelBackgroundColor=none;strokeWidth=1;fillColor=none;fontFamily=Verdana;fontSize=12;align=center;comic=1;" vertex="1" parent="j1sb6C-Fn04QrcvdD1-I-1">
                    <mxGeometry x="200" y="60" width="710" height="50" as="geometry"/>
                </mxCell>
                <mxCell id="j1sb6C-Fn04QrcvdD1-I-5" value="number" style="text;html=1;points=[];align=left;verticalAlign=top;spacingTop=-4;fontSize=14;fontFamily=Verdana" vertex="1" parent="j1sb6C-Fn04QrcvdD1-I-1">
                    <mxGeometry x="220" y="75" width="60" height="20" as="geometry"/>
                </mxCell>
                <mxCell id="j1sb6C-Fn04QrcvdD1-I-6" value="email" style="text;html=1;points=[];align=left;verticalAlign=top;spacingTop=-4;fontSize=14;fontFamily=Verdana" vertex="1" parent="j1sb6C-Fn04QrcvdD1-I-1">
                    <mxGeometry x="430" y="75" width="60" height="20" as="geometry"/>
                </mxCell>
                <mxCell id="j1sb6C-Fn04QrcvdD1-I-7" value="linkedin" style="text;html=1;points=[];align=left;verticalAlign=top;spacingTop=-4;fontSize=14;fontFamily=Verdana" vertex="1" parent="j1sb6C-Fn04QrcvdD1-I-1">
                    <mxGeometry x="610" y="75" width="60" height="20" as="geometry"/>
                </mxCell>
                <mxCell id="j1sb6C-Fn04QrcvdD1-I-9" value="" style="verticalLabelPosition=bottom;shadow=0;dashed=0;align=center;html=1;verticalAlign=top;strokeWidth=1;shape=mxgraph.mockup.graphics.simpleIcon;strokeColor=#999999;rounded=0;labelBackgroundColor=none;fontFamily=Verdana;fontSize=14;fontColor=#000000;comic=1;" vertex="1" parent="j1sb6C-Fn04QrcvdD1-I-1">
                    <mxGeometry x="50" y="190" width="470" height="620" as="geometry"/>
                </mxCell>
                <mxCell id="j1sb6C-Fn04QrcvdD1-I-10" value="" style="shape=image;html=1;verticalAlign=top;verticalLabelPosition=bottom;labelBackgroundColor=#ffffff;imageAspect=0;aspect=fixed;image=https://cdn0.iconfinder.com/data/icons/mobile-basic-vol-1/32/Burger_Menu-128.png" vertex="1" parent="j1sb6C-Fn04QrcvdD1-I-1">
                    <mxGeometry x="970" y="40" width="90" height="90" as="geometry"/>
                </mxCell>
                <mxCell id="j1sb6C-Fn04QrcvdD1-I-14" value="&lt;font style=&quot;font-size: 43px&quot;&gt;contact form&lt;/font&gt;" style="text;html=1;strokeColor=none;fillColor=none;align=center;verticalAlign=middle;whiteSpace=wrap;rounded=0;" vertex="1" parent="j1sb6C-Fn04QrcvdD1-I-1">
                    <mxGeometry x="630" y="280" width="390" height="40" as="geometry"/>
                </mxCell>
                <mxCell id="j1sb6C-Fn04QrcvdD1-I-15" value="" style="rounded=0;whiteSpace=wrap;html=1;" vertex="1" parent="j1sb6C-Fn04QrcvdD1-I-1">
                    <mxGeometry x="680" y="360" width="310" height="30" as="geometry"/>
                </mxCell>
                <mxCell id="j1sb6C-Fn04QrcvdD1-I-16" value="" style="rounded=0;whiteSpace=wrap;html=1;" vertex="1" parent="j1sb6C-Fn04QrcvdD1-I-1">
                    <mxGeometry x="680" y="420" width="310" height="30" as="geometry"/>
                </mxCell>
                <mxCell id="j1sb6C-Fn04QrcvdD1-I-18" value="" style="rounded=0;whiteSpace=wrap;html=1;" vertex="1" parent="j1sb6C-Fn04QrcvdD1-I-1">
                    <mxGeometry x="680" y="490" width="310" height="170" as="geometry"/>
                </mxCell>
                <mxCell id="j1sb6C-Fn04QrcvdD1-I-19" value="Send" style="rounded=1;html=1;shadow=0;dashed=0;whiteSpace=wrap;fontSize=10;fillColor=#666666;align=center;strokeColor=#4D4D4D;fontColor=#ffffff;" vertex="1" parent="j1sb6C-Fn04QrcvdD1-I-1">
                    <mxGeometry x="782" y="720" width="105.5" height="16.88" as="geometry"/>
                </mxCell>
                <mxCell id="CMJ0wCNbOKaHumQZcZQe-0" value="resume" style="text;html=1;points=[];align=left;verticalAlign=top;spacingTop=-4;fontSize=14;fontFamily=Verdana" vertex="1" parent="j1sb6C-Fn04QrcvdD1-I-1">
                    <mxGeometry x="770" y="75" width="60" height="20" as="geometry"/>
                </mxCell>
            </root>
        </mxGraphModel>
    </diagram>
    <diagram name="Page-6" id="rJmp1nmes9KpraCwUT0O">
        <mxGraphModel dx="1294" dy="894" grid="1" gridSize="10" guides="1" tooltips="1" connect="1" arrows="1" fold="1" page="1" pageScale="1" pageWidth="1100" pageHeight="850" background="none" math="0" shadow="0">
            <root>
                <mxCell id="m6aLEAG9wS7z5vct-VmJ-0"/>
                <mxCell id="m6aLEAG9wS7z5vct-VmJ-1" parent="m6aLEAG9wS7z5vct-VmJ-0"/>
                <mxCell id="m6aLEAG9wS7z5vct-VmJ-2" value="" style="whiteSpace=wrap;html=1;rounded=0;shadow=0;labelBackgroundColor=none;strokeColor=#000000;strokeWidth=1;fillColor=none;fontFamily=Verdana;fontSize=12;fontColor=#000000;align=center;comic=1;" vertex="1" parent="m6aLEAG9wS7z5vct-VmJ-1">
                    <mxGeometry x="20" y="20" width="1060" height="810" as="geometry"/>
                </mxCell>
                <mxCell id="m6aLEAG9wS7z5vct-VmJ-3" value="" style="line;strokeWidth=1;html=1;rounded=0;shadow=0;labelBackgroundColor=none;fillColor=none;fontFamily=Verdana;fontSize=14;fontColor=#000000;align=center;comic=1;" vertex="1" parent="m6aLEAG9wS7z5vct-VmJ-1">
                    <mxGeometry x="20" y="140" width="810" height="10" as="geometry"/>
                </mxCell>
                <mxCell id="m6aLEAG9wS7z5vct-VmJ-4" value="" style="whiteSpace=wrap;html=1;rounded=0;shadow=0;labelBackgroundColor=none;strokeWidth=1;fillColor=none;fontFamily=Verdana;fontSize=12;align=center;comic=1;" vertex="1" parent="m6aLEAG9wS7z5vct-VmJ-1">
                    <mxGeometry x="100" y="60" width="710" height="50" as="geometry"/>
                </mxCell>
                <mxCell id="m6aLEAG9wS7z5vct-VmJ-5" value="number" style="text;html=1;points=[];align=left;verticalAlign=top;spacingTop=-4;fontSize=14;fontFamily=Verdana" vertex="1" parent="m6aLEAG9wS7z5vct-VmJ-1">
                    <mxGeometry x="120" y="75" width="60" height="20" as="geometry"/>
                </mxCell>
                <mxCell id="m6aLEAG9wS7z5vct-VmJ-6" value="email" style="text;html=1;points=[];align=left;verticalAlign=top;spacingTop=-4;fontSize=14;fontFamily=Verdana" vertex="1" parent="m6aLEAG9wS7z5vct-VmJ-1">
                    <mxGeometry x="330" y="75" width="60" height="20" as="geometry"/>
                </mxCell>
                <mxCell id="m6aLEAG9wS7z5vct-VmJ-7" value="linkedin" style="text;html=1;points=[];align=left;verticalAlign=top;spacingTop=-4;fontSize=14;fontFamily=Verdana" vertex="1" parent="m6aLEAG9wS7z5vct-VmJ-1">
                    <mxGeometry x="510" y="75" width="60" height="20" as="geometry"/>
                </mxCell>
                <mxCell id="m6aLEAG9wS7z5vct-VmJ-15" value="resume" style="text;html=1;points=[];align=left;verticalAlign=top;spacingTop=-4;fontSize=14;fontFamily=Verdana" vertex="1" parent="m6aLEAG9wS7z5vct-VmJ-1">
                    <mxGeometry x="670" y="75" width="60" height="20" as="geometry"/>
                </mxCell>
                <mxCell id="m6aLEAG9wS7z5vct-VmJ-16" value="" style="shape=image;html=1;verticalAlign=top;verticalLabelPosition=bottom;labelBackgroundColor=#ffffff;imageAspect=0;aspect=fixed;image=https://cdn1.iconfinder.com/data/icons/feather-2/24/x-128.png" vertex="1" parent="m6aLEAG9wS7z5vct-VmJ-1">
                    <mxGeometry x="951" y="21" width="128" height="128" as="geometry"/>
                </mxCell>
                <mxCell id="m6aLEAG9wS7z5vct-VmJ-17" value="" style="whiteSpace=wrap;html=1;rounded=0;shadow=0;labelBackgroundColor=none;strokeColor=#000000;strokeWidth=1;fillColor=none;fontFamily=Verdana;fontSize=12;fontColor=#000000;align=center;comic=1;" vertex="1" parent="m6aLEAG9wS7z5vct-VmJ-1">
                    <mxGeometry x="840" y="21" width="240" height="810" as="geometry"/>
                </mxCell>
                <mxCell id="m6aLEAG9wS7z5vct-VmJ-18" value="&lt;font style=&quot;font-size: 34px&quot;&gt;HOME&lt;/font&gt;" style="text;html=1;points=[];align=center;verticalAlign=top;spacingTop=-4;fontSize=14;fontFamily=Verdana" vertex="1" parent="m6aLEAG9wS7z5vct-VmJ-1">
                    <mxGeometry x="885" y="250" width="150" height="50" as="geometry"/>
                </mxCell>
                <mxCell id="m6aLEAG9wS7z5vct-VmJ-19" value="&lt;span style=&quot;font-size: 34px&quot;&gt;PORTFOLIO&lt;/span&gt;" style="text;html=1;points=[];align=center;verticalAlign=top;spacingTop=-4;fontSize=14;fontFamily=Verdana" vertex="1" parent="m6aLEAG9wS7z5vct-VmJ-1">
                    <mxGeometry x="885" y="350" width="150" height="50" as="geometry"/>
                </mxCell>
                <mxCell id="m6aLEAG9wS7z5vct-VmJ-20" value="&lt;span style=&quot;font-size: 34px&quot;&gt;RESUME&lt;/span&gt;" style="text;html=1;points=[];align=center;verticalAlign=top;spacingTop=-4;fontSize=14;fontFamily=Verdana" vertex="1" parent="m6aLEAG9wS7z5vct-VmJ-1">
                    <mxGeometry x="885" y="450" width="150" height="50" as="geometry"/>
                </mxCell>
                <mxCell id="m6aLEAG9wS7z5vct-VmJ-21" value="&lt;span style=&quot;font-size: 34px&quot;&gt;REFERENCES&lt;/span&gt;" style="text;html=1;points=[];align=center;verticalAlign=top;spacingTop=-4;fontSize=14;fontFamily=Verdana" vertex="1" parent="m6aLEAG9wS7z5vct-VmJ-1">
                    <mxGeometry x="885" y="540" width="150" height="50" as="geometry"/>
                </mxCell>
                <mxCell id="m6aLEAG9wS7z5vct-VmJ-22" value="&lt;font style=&quot;font-size: 34px&quot;&gt;CONTACT&lt;/font&gt;" style="text;html=1;points=[];align=center;verticalAlign=top;spacingTop=-4;fontSize=14;fontFamily=Verdana" vertex="1" parent="m6aLEAG9wS7z5vct-VmJ-1">
                    <mxGeometry x="885" y="640" width="150" height="50" as="geometry"/>
                </mxCell>
                <mxCell id="m6aLEAG9wS7z5vct-VmJ-24" value="CONTENT ON THIS&amp;nbsp;&lt;br&gt;&lt;br&gt;PORTION OF THE PAGE&lt;br&gt;&lt;br&gt;WILL BE THE CURRENT&amp;nbsp;&lt;br&gt;&lt;br&gt;PAGE, SO IT COULD&amp;nbsp;&lt;br&gt;&lt;br&gt;VARY" style="text;html=1;points=[];align=left;verticalAlign=top;spacingTop=-4;fontSize=14;fontFamily=Verdana" vertex="1" parent="m6aLEAG9wS7z5vct-VmJ-1">
                    <mxGeometry x="280" y="365" width="200" height="165" as="geometry"/>
                </mxCell>
            </root>
        </mxGraphModel>
    </diagram>
</mxfile>